<mxfile host="65bd71144e">
    <diagram id="twMIT48h9t61ZoC6kRE7" name="Page-1">
        <mxGraphModel dx="288" dy="192" grid="0" gridSize="10" guides="1" tooltips="1" connect="1" arrows="1" fold="1" page="1" pageScale="1" pageWidth="850" pageHeight="1100" background="none" math="0" shadow="0">
            <root>
                <mxCell id="0"/>
                <mxCell id="1" parent="0"/>
                <mxCell id="29" value="" style="shape=table;startSize=0;container=1;collapsible=0;childLayout=tableLayout;" parent="1" vertex="1">
                    <mxGeometry x="296" y="502" width="66.43" height="107" as="geometry"/>
                </mxCell>
                <mxCell id="30" value="" style="shape=tableRow;horizontal=0;startSize=0;swimlaneHead=0;swimlaneBody=0;top=0;left=0;bottom=0;right=0;collapsible=0;dropTarget=0;fillColor=none;points=[[0,0.5],[1,0.5]];portConstraint=eastwest;" parent="29" vertex="1">
                    <mxGeometry width="66.43" height="47" as="geometry"/>
                </mxCell>
                <mxCell id="31" value="événement" style="shape=partialRectangle;html=1;whiteSpace=wrap;connectable=0;overflow=hidden;fillColor=none;top=0;left=0;bottom=0;right=0;pointerEvents=1;" parent="30" vertex="1">
                    <mxGeometry width="66" height="47" as="geometry">
                        <mxRectangle width="66" height="47" as="alternateBounds"/>
                    </mxGeometry>
                </mxCell>
                <mxCell id="32" value="" style="shape=tableRow;horizontal=0;startSize=0;swimlaneHead=0;swimlaneBody=0;top=0;left=0;bottom=0;right=0;collapsible=0;dropTarget=0;fillColor=none;points=[[0,0.5],[1,0.5]];portConstraint=eastwest;" parent="29" vertex="1">
                    <mxGeometry y="47" width="66.43" height="60" as="geometry"/>
                </mxCell>
                <mxCell id="33" value="&lt;div style=&quot;&quot;&gt;&lt;u style=&quot;background-color: initial; font-size: 10px;&quot;&gt;id évenement&lt;/u&gt;&lt;/div&gt;&lt;div style=&quot;&quot;&gt;&lt;span style=&quot;background-color: initial; font-size: 10px;&quot;&gt;nom&lt;/span&gt;&lt;/div&gt;&lt;div style=&quot;&quot;&gt;&lt;span style=&quot;background-color: initial; font-size: 10px;&quot;&gt;date&amp;nbsp;&lt;/span&gt;&lt;br&gt;&lt;/div&gt;&lt;div style=&quot;&quot;&gt;&lt;span style=&quot;font-size: 10px;&quot;&gt;#id lieux&lt;/span&gt;&lt;/div&gt;&lt;div style=&quot;&quot;&gt;&lt;span style=&quot;background-color: initial; font-size: 10px;&quot;&gt;&lt;br&gt;&lt;/span&gt;&lt;/div&gt;" style="shape=partialRectangle;html=1;whiteSpace=wrap;connectable=0;overflow=hidden;fillColor=none;top=0;left=0;bottom=0;right=0;pointerEvents=1;align=left;" parent="32" vertex="1">
                    <mxGeometry width="66" height="60" as="geometry">
                        <mxRectangle width="66" height="60" as="alternateBounds"/>
                    </mxGeometry>
                </mxCell>
                <mxCell id="41" value="" style="shape=table;startSize=0;container=1;collapsible=0;childLayout=tableLayout;" parent="1" vertex="1">
                    <mxGeometry x="296" y="240" width="66.43" height="111" as="geometry"/>
                </mxCell>
                <mxCell id="42" value="" style="shape=tableRow;horizontal=0;startSize=0;swimlaneHead=0;swimlaneBody=0;top=0;left=0;bottom=0;right=0;collapsible=0;dropTarget=0;fillColor=none;points=[[0,0.5],[1,0.5]];portConstraint=eastwest;" parent="41" vertex="1">
                    <mxGeometry width="66.43" height="48" as="geometry"/>
                </mxCell>
                <mxCell id="43" value="Sponsor" style="shape=partialRectangle;html=1;whiteSpace=wrap;connectable=0;overflow=hidden;fillColor=none;top=0;left=0;bottom=0;right=0;pointerEvents=1;" parent="42" vertex="1">
                    <mxGeometry width="66" height="48" as="geometry">
                        <mxRectangle width="66" height="48" as="alternateBounds"/>
                    </mxGeometry>
                </mxCell>
                <mxCell id="44" value="" style="shape=tableRow;horizontal=0;startSize=0;swimlaneHead=0;swimlaneBody=0;top=0;left=0;bottom=0;right=0;collapsible=0;dropTarget=0;fillColor=none;points=[[0,0.5],[1,0.5]];portConstraint=eastwest;" parent="41" vertex="1">
                    <mxGeometry y="48" width="66.43" height="63" as="geometry"/>
                </mxCell>
                <mxCell id="45" value="&lt;div style=&quot;&quot;&gt;&lt;u style=&quot;background-color: initial; font-size: 10px;&quot;&gt;id sponsor&lt;/u&gt;&lt;/div&gt;&lt;div style=&quot;&quot;&gt;&lt;span style=&quot;background-color: initial; font-size: 10px;&quot;&gt;name&amp;nbsp;&lt;/span&gt;&lt;/div&gt;&lt;div style=&quot;&quot;&gt;&lt;span style=&quot;background-color: initial; font-size: 10px;&quot;&gt;email&lt;/span&gt;&lt;/div&gt;" style="shape=partialRectangle;html=1;whiteSpace=wrap;connectable=0;overflow=hidden;fillColor=none;top=0;left=0;bottom=0;right=0;pointerEvents=1;align=left;" parent="44" vertex="1">
                    <mxGeometry width="66" height="63" as="geometry">
                        <mxRectangle width="66" height="63" as="alternateBounds"/>
                    </mxGeometry>
                </mxCell>
                <mxCell id="57" value="" style="shape=link;html=1;fontSize=10;width=1.1111111111111107;entryX=0.372;entryY=0.996;entryDx=0;entryDy=0;entryPerimeter=0;" parent="1" edge="1">
                    <mxGeometry width="100" relative="1" as="geometry">
                        <mxPoint x="328" y="378" as="sourcePoint"/>
                        <mxPoint x="327.7119600000001" y="354.74800000000005" as="targetPoint"/>
                        <Array as="points"/>
                    </mxGeometry>
                </mxCell>
                <mxCell id="59" value="" style="shape=link;html=1;fontSize=10;width=1.1111111111111107;entryX=0.525;entryY=1.075;entryDx=0;entryDy=0;entryPerimeter=0;" parent="1" target="139" edge="1">
                    <mxGeometry width="100" relative="1" as="geometry">
                        <mxPoint x="328.0000000000002" y="500" as="sourcePoint"/>
                        <mxPoint x="328" y="464" as="targetPoint"/>
                        <Array as="points"/>
                    </mxGeometry>
                </mxCell>
                <mxCell id="63" value="&lt;font style=&quot;font-weight: normal; font-size: 8px;&quot;&gt;1.N&lt;/font&gt;" style="text;strokeColor=none;fillColor=none;html=1;fontSize=24;fontStyle=1;verticalAlign=middle;align=center;strokeWidth=1;opacity=60;rotation=-90;" parent="1" vertex="1">
                    <mxGeometry x="286.72" y="357" width="47" height="19" as="geometry"/>
                </mxCell>
                <mxCell id="64" value="&lt;font style=&quot;font-weight: normal; font-size: 8px;&quot;&gt;1.N&lt;/font&gt;" style="text;strokeColor=none;fillColor=none;html=1;fontSize=24;fontStyle=1;verticalAlign=middle;align=center;strokeWidth=1;opacity=60;rotation=-90;" parent="1" vertex="1">
                    <mxGeometry x="286.72" y="480" width="47" height="19" as="geometry"/>
                </mxCell>
                <mxCell id="65" value="" style="shape=table;startSize=0;container=1;collapsible=0;childLayout=tableLayout;" parent="1" vertex="1">
                    <mxGeometry x="562" y="492.47" width="66.43" height="111" as="geometry"/>
                </mxCell>
                <mxCell id="66" value="" style="shape=tableRow;horizontal=0;startSize=0;swimlaneHead=0;swimlaneBody=0;top=0;left=0;bottom=0;right=0;collapsible=0;dropTarget=0;fillColor=none;points=[[0,0.5],[1,0.5]];portConstraint=eastwest;" parent="65" vertex="1">
                    <mxGeometry width="66.43" height="48" as="geometry"/>
                </mxCell>
                <mxCell id="67" value="Lieux" style="shape=partialRectangle;html=1;whiteSpace=wrap;connectable=0;overflow=hidden;fillColor=none;top=0;left=0;bottom=0;right=0;pointerEvents=1;" parent="66" vertex="1">
                    <mxGeometry width="66" height="48" as="geometry">
                        <mxRectangle width="66" height="48" as="alternateBounds"/>
                    </mxGeometry>
                </mxCell>
                <mxCell id="68" value="" style="shape=tableRow;horizontal=0;startSize=0;swimlaneHead=0;swimlaneBody=0;top=0;left=0;bottom=0;right=0;collapsible=0;dropTarget=0;fillColor=none;points=[[0,0.5],[1,0.5]];portConstraint=eastwest;" parent="65" vertex="1">
                    <mxGeometry y="48" width="66.43" height="63" as="geometry"/>
                </mxCell>
                <mxCell id="69" value="&lt;div style=&quot;&quot;&gt;&lt;u style=&quot;background-color: initial; font-size: 10px;&quot;&gt;id lieux&lt;/u&gt;&lt;/div&gt;&lt;div style=&quot;&quot;&gt;&lt;span style=&quot;background-color: initial; font-size: 10px;&quot;&gt;Adresse&lt;/span&gt;&lt;/div&gt;" style="shape=partialRectangle;html=1;whiteSpace=wrap;connectable=0;overflow=hidden;fillColor=none;top=0;left=0;bottom=0;right=0;pointerEvents=1;align=left;" parent="68" vertex="1">
                    <mxGeometry width="66" height="63" as="geometry">
                        <mxRectangle width="66" height="63" as="alternateBounds"/>
                    </mxGeometry>
                </mxCell>
                <mxCell id="70" value="placer" style="ellipse;whiteSpace=wrap;html=1;align=center;newEdgeStyle={&quot;edgeStyle&quot;:&quot;entityRelationEdgeStyle&quot;,&quot;startArrow&quot;:&quot;none&quot;,&quot;endArrow&quot;:&quot;none&quot;,&quot;segment&quot;:10,&quot;curved&quot;:1,&quot;sourcePerimeterSpacing&quot;:0,&quot;targetPerimeterSpacing&quot;:0};treeFolding=1;treeMoving=1;fontSize=10;" parent="1" vertex="1">
                    <mxGeometry x="420" y="530" width="85" height="36" as="geometry"/>
                </mxCell>
                <mxCell id="72" value="" style="shape=link;html=1;fontSize=10;width=1.1111111111111107;exitX=1.034;exitY=0.083;exitDx=0;exitDy=0;exitPerimeter=0;" parent="1" edge="1">
                    <mxGeometry width="100" relative="1" as="geometry">
                        <mxPoint x="238.68403222656252" y="546.316" as="sourcePoint"/>
                        <mxPoint x="294" y="546" as="targetPoint"/>
                        <Array as="points"/>
                    </mxGeometry>
                </mxCell>
                <mxCell id="73" value="" style="shape=link;html=1;fontSize=10;width=1.1111111111111107;exitX=1.034;exitY=0.083;exitDx=0;exitDy=0;exitPerimeter=0;" parent="1" edge="1">
                    <mxGeometry width="100" relative="1" as="geometry">
                        <mxPoint x="505.6840322265625" y="546.316" as="sourcePoint"/>
                        <mxPoint x="561" y="546" as="targetPoint"/>
                        <Array as="points"/>
                    </mxGeometry>
                </mxCell>
                <mxCell id="74" value="&lt;font style=&quot;font-weight: normal; font-size: 8px;&quot;&gt;1.N&lt;/font&gt;" style="text;strokeColor=none;fillColor=none;html=1;fontSize=24;fontStyle=1;verticalAlign=middle;align=center;strokeWidth=1;opacity=60;rotation=0;" parent="1" vertex="1">
                    <mxGeometry x="521" y="522" width="47" height="19" as="geometry"/>
                </mxCell>
                <mxCell id="75" value="&lt;font style=&quot;font-weight: normal; font-size: 8px;&quot;&gt;1.1&lt;/font&gt;" style="text;strokeColor=none;fillColor=none;html=1;fontSize=24;fontStyle=1;verticalAlign=middle;align=center;strokeWidth=1;opacity=60;rotation=0;" parent="1" vertex="1">
                    <mxGeometry x="353" y="522" width="47" height="19" as="geometry"/>
                </mxCell>
                <mxCell id="76" value="" style="shape=table;startSize=0;container=1;collapsible=0;childLayout=tableLayout;" parent="1" vertex="1">
                    <mxGeometry x="8" y="498" width="85.43" height="128" as="geometry"/>
                </mxCell>
                <mxCell id="77" value="" style="shape=tableRow;horizontal=0;startSize=0;swimlaneHead=0;swimlaneBody=0;top=0;left=0;bottom=0;right=0;collapsible=0;dropTarget=0;fillColor=none;points=[[0,0.5],[1,0.5]];portConstraint=eastwest;" parent="76" vertex="1">
                    <mxGeometry width="85.43" height="56" as="geometry"/>
                </mxCell>
                <mxCell id="78" value="Organisateurs" style="shape=partialRectangle;html=1;whiteSpace=wrap;connectable=0;overflow=hidden;fillColor=none;top=0;left=0;bottom=0;right=0;pointerEvents=1;" parent="77" vertex="1">
                    <mxGeometry width="85" height="56" as="geometry">
                        <mxRectangle width="85" height="56" as="alternateBounds"/>
                    </mxGeometry>
                </mxCell>
                <mxCell id="79" value="" style="shape=tableRow;horizontal=0;startSize=0;swimlaneHead=0;swimlaneBody=0;top=0;left=0;bottom=0;right=0;collapsible=0;dropTarget=0;fillColor=none;points=[[0,0.5],[1,0.5]];portConstraint=eastwest;" parent="76" vertex="1">
                    <mxGeometry y="56" width="85.43" height="72" as="geometry"/>
                </mxCell>
                <mxCell id="80" value="&lt;div style=&quot;&quot;&gt;&lt;u style=&quot;background-color: initial; font-size: 10px;&quot;&gt;id org&lt;/u&gt;&lt;/div&gt;&lt;div style=&quot;&quot;&gt;&lt;span style=&quot;background-color: initial; font-size: 10px;&quot;&gt;nom&lt;/span&gt;&lt;/div&gt;&lt;div style=&quot;&quot;&gt;&lt;span style=&quot;background-color: initial; font-size: 10px;&quot;&gt;Telephone&lt;/span&gt;&lt;br&gt;&lt;/div&gt;&lt;div style=&quot;&quot;&gt;&lt;span style=&quot;background-color: initial; font-size: 10px;&quot;&gt;#id événement&lt;/span&gt;&lt;/div&gt;" style="shape=partialRectangle;html=1;whiteSpace=wrap;connectable=0;overflow=hidden;fillColor=none;top=0;left=0;bottom=0;right=0;pointerEvents=1;align=left;" parent="79" vertex="1">
                    <mxGeometry width="85" height="72" as="geometry">
                        <mxRectangle width="85" height="72" as="alternateBounds"/>
                    </mxGeometry>
                </mxCell>
                <mxCell id="81" value="organiser" style="ellipse;whiteSpace=wrap;html=1;align=center;newEdgeStyle={&quot;edgeStyle&quot;:&quot;entityRelationEdgeStyle&quot;,&quot;startArrow&quot;:&quot;none&quot;,&quot;endArrow&quot;:&quot;none&quot;,&quot;segment&quot;:10,&quot;curved&quot;:1,&quot;sourcePerimeterSpacing&quot;:0,&quot;targetPerimeterSpacing&quot;:0};treeFolding=1;treeMoving=1;fontSize=10;" parent="1" vertex="1">
                    <mxGeometry x="152" y="530" width="85" height="36" as="geometry"/>
                </mxCell>
                <mxCell id="82" value="" style="shape=link;html=1;fontSize=10;width=1.1111111111111107;exitX=1.034;exitY=0.083;exitDx=0;exitDy=0;exitPerimeter=0;" parent="1" edge="1">
                    <mxGeometry width="100" relative="1" as="geometry">
                        <mxPoint x="95.68403222656252" y="545.316" as="sourcePoint"/>
                        <mxPoint x="151" y="545" as="targetPoint"/>
                        <Array as="points"/>
                    </mxGeometry>
                </mxCell>
                <mxCell id="83" value="" style="shape=link;html=1;fontSize=10;width=1.1111111111111107;exitX=1.034;exitY=0.083;exitDx=0;exitDy=0;exitPerimeter=0;" parent="1" edge="1">
                    <mxGeometry width="100" relative="1" as="geometry">
                        <mxPoint x="363.6840322265625" y="546.316" as="sourcePoint"/>
                        <mxPoint x="419" y="546" as="targetPoint"/>
                        <Array as="points"/>
                    </mxGeometry>
                </mxCell>
                <mxCell id="84" value="&lt;font style=&quot;font-weight: normal; font-size: 8px;&quot;&gt;1.N&lt;/font&gt;" style="text;strokeColor=none;fillColor=none;html=1;fontSize=24;fontStyle=1;verticalAlign=middle;align=center;strokeWidth=1;opacity=60;rotation=0;" parent="1" vertex="1">
                    <mxGeometry x="245" y="517" width="47" height="19" as="geometry"/>
                </mxCell>
                <mxCell id="85" value="&lt;font style=&quot;font-weight: normal; font-size: 8px;&quot;&gt;1.1&lt;/font&gt;" style="text;strokeColor=none;fillColor=none;html=1;fontSize=24;fontStyle=1;verticalAlign=middle;align=center;strokeWidth=1;opacity=60;rotation=0;" parent="1" vertex="1">
                    <mxGeometry x="81" y="522" width="47" height="19" as="geometry"/>
                </mxCell>
                <mxCell id="86" value="" style="shape=table;startSize=0;container=1;collapsible=0;childLayout=tableLayout;" parent="1" vertex="1">
                    <mxGeometry x="568" y="733.5" width="141" height="172.5" as="geometry"/>
                </mxCell>
                <mxCell id="87" value="" style="shape=tableRow;horizontal=0;startSize=0;swimlaneHead=0;swimlaneBody=0;top=0;left=0;bottom=0;right=0;collapsible=0;dropTarget=0;fillColor=none;points=[[0,0.5],[1,0.5]];portConstraint=eastwest;" parent="86" vertex="1">
                    <mxGeometry width="141" height="74" as="geometry"/>
                </mxCell>
                <mxCell id="88" value="participants" style="shape=partialRectangle;html=1;whiteSpace=wrap;connectable=0;overflow=hidden;fillColor=none;top=0;left=0;bottom=0;right=0;pointerEvents=1;" parent="87" vertex="1">
                    <mxGeometry width="141" height="74" as="geometry">
                        <mxRectangle width="141" height="74" as="alternateBounds"/>
                    </mxGeometry>
                </mxCell>
                <mxCell id="89" value="" style="shape=tableRow;horizontal=0;startSize=0;swimlaneHead=0;swimlaneBody=0;top=0;left=0;bottom=0;right=0;collapsible=0;dropTarget=0;fillColor=none;points=[[0,0.5],[1,0.5]];portConstraint=eastwest;" parent="86" vertex="1">
                    <mxGeometry y="74" width="141" height="99" as="geometry"/>
                </mxCell>
                <mxCell id="90" value="&lt;div style=&quot;&quot;&gt;&lt;u style=&quot;background-color: initial; font-size: 10px;&quot;&gt;id participent&lt;/u&gt;&lt;/div&gt;&lt;div style=&quot;&quot;&gt;&lt;span style=&quot;font-size: 10px; background-color: initial;&quot;&gt;nom&lt;/span&gt;&lt;/div&gt;&lt;div style=&quot;&quot;&gt;&lt;span style=&quot;font-size: 10px; background-color: initial;&quot;&gt;email&lt;/span&gt;&lt;br&gt;&lt;/div&gt;&lt;div style=&quot;&quot;&gt;&lt;span style=&quot;font-size: 10px;&quot;&gt;#id événement&lt;/span&gt;&lt;/div&gt;" style="shape=partialRectangle;html=1;whiteSpace=wrap;connectable=0;overflow=hidden;fillColor=none;top=0;left=0;bottom=0;right=0;pointerEvents=1;align=left;" parent="89" vertex="1">
                    <mxGeometry width="141" height="99" as="geometry">
                        <mxRectangle width="141" height="99" as="alternateBounds"/>
                    </mxGeometry>
                </mxCell>
                <mxCell id="91" value="" style="shape=table;startSize=0;container=1;collapsible=0;childLayout=tableLayout;" parent="1" vertex="1">
                    <mxGeometry x="301" y="736" width="83" height="129" as="geometry"/>
                </mxCell>
                <mxCell id="92" value="" style="shape=tableRow;horizontal=0;startSize=0;swimlaneHead=0;swimlaneBody=0;top=0;left=0;bottom=0;right=0;collapsible=0;dropTarget=0;fillColor=none;points=[[0,0.5],[1,0.5]];portConstraint=eastwest;" parent="91" vertex="1">
                    <mxGeometry width="83" height="56" as="geometry"/>
                </mxCell>
                <mxCell id="93" value="biellet" style="shape=partialRectangle;html=1;whiteSpace=wrap;connectable=0;overflow=hidden;fillColor=none;top=0;left=0;bottom=0;right=0;pointerEvents=1;" parent="92" vertex="1">
                    <mxGeometry width="83" height="56" as="geometry">
                        <mxRectangle width="83" height="56" as="alternateBounds"/>
                    </mxGeometry>
                </mxCell>
                <mxCell id="94" value="" style="shape=tableRow;horizontal=0;startSize=0;swimlaneHead=0;swimlaneBody=0;top=0;left=0;bottom=0;right=0;collapsible=0;dropTarget=0;fillColor=none;points=[[0,0.5],[1,0.5]];portConstraint=eastwest;" parent="91" vertex="1">
                    <mxGeometry y="56" width="83" height="73" as="geometry"/>
                </mxCell>
                <mxCell id="95" value="&lt;div style=&quot;&quot;&gt;&lt;u style=&quot;background-color: initial; font-size: 10px;&quot;&gt;id biellet&lt;/u&gt;&lt;/div&gt;&lt;div style=&quot;&quot;&gt;&lt;span style=&quot;font-size: 10px;&quot;&gt;prix&lt;/span&gt;&lt;/div&gt;&lt;div style=&quot;&quot;&gt;&lt;span style=&quot;font-size: 10px;&quot;&gt;#id retours&lt;/span&gt;&lt;/div&gt;&lt;div style=&quot;&quot;&gt;&lt;span style=&quot;font-size: 10px;&quot;&gt;#id participants&lt;/span&gt;&lt;/div&gt;" style="shape=partialRectangle;html=1;whiteSpace=wrap;connectable=0;overflow=hidden;fillColor=none;top=0;left=0;bottom=0;right=0;pointerEvents=1;align=left;" parent="94" vertex="1">
                    <mxGeometry width="83" height="73" as="geometry">
                        <mxRectangle width="83" height="73" as="alternateBounds"/>
                    </mxGeometry>
                </mxCell>
                <mxCell id="96" value="Acheter" style="ellipse;whiteSpace=wrap;html=1;align=center;newEdgeStyle={&quot;edgeStyle&quot;:&quot;entityRelationEdgeStyle&quot;,&quot;startArrow&quot;:&quot;none&quot;,&quot;endArrow&quot;:&quot;none&quot;,&quot;segment&quot;:10,&quot;curved&quot;:1,&quot;sourcePerimeterSpacing&quot;:0,&quot;targetPerimeterSpacing&quot;:0};treeFolding=1;treeMoving=1;fontSize=10;" parent="1" vertex="1">
                    <mxGeometry x="425" y="771" width="85" height="36" as="geometry"/>
                </mxCell>
                <mxCell id="97" value="" style="shape=table;startSize=0;container=1;collapsible=0;childLayout=tableLayout;" parent="1" vertex="1">
                    <mxGeometry x="15" y="749.03" width="85.43" height="130.97" as="geometry"/>
                </mxCell>
                <mxCell id="98" value="" style="shape=tableRow;horizontal=0;startSize=0;swimlaneHead=0;swimlaneBody=0;top=0;left=0;bottom=0;right=0;collapsible=0;dropTarget=0;fillColor=none;points=[[0,0.5],[1,0.5]];portConstraint=eastwest;" parent="97" vertex="1">
                    <mxGeometry width="85.43" height="57" as="geometry"/>
                </mxCell>
                <mxCell id="99" value="retours" style="shape=partialRectangle;html=1;whiteSpace=wrap;connectable=0;overflow=hidden;fillColor=none;top=0;left=0;bottom=0;right=0;pointerEvents=1;" parent="98" vertex="1">
                    <mxGeometry width="85" height="57" as="geometry">
                        <mxRectangle width="85" height="57" as="alternateBounds"/>
                    </mxGeometry>
                </mxCell>
                <mxCell id="100" value="" style="shape=tableRow;horizontal=0;startSize=0;swimlaneHead=0;swimlaneBody=0;top=0;left=0;bottom=0;right=0;collapsible=0;dropTarget=0;fillColor=none;points=[[0,0.5],[1,0.5]];portConstraint=eastwest;" parent="97" vertex="1">
                    <mxGeometry y="57" width="85.43" height="74" as="geometry"/>
                </mxCell>
                <mxCell id="101" value="&lt;div style=&quot;&quot;&gt;&lt;u style=&quot;background-color: initial; font-size: 10px;&quot;&gt;id reteurs&lt;/u&gt;&lt;/div&gt;&lt;div style=&quot;&quot;&gt;&lt;span style=&quot;background-color: initial; font-size: 10px;&quot;&gt;monatant&lt;/span&gt;&lt;/div&gt;&lt;div style=&quot;&quot;&gt;&lt;span style=&quot;background-color: initial; font-size: 10px;&quot;&gt;#id événement&lt;/span&gt;&lt;/div&gt;" style="shape=partialRectangle;html=1;whiteSpace=wrap;connectable=0;overflow=hidden;fillColor=none;top=0;left=0;bottom=0;right=0;pointerEvents=1;align=left;" parent="100" vertex="1">
                    <mxGeometry width="85" height="74" as="geometry">
                        <mxRectangle width="85" height="74" as="alternateBounds"/>
                    </mxGeometry>
                </mxCell>
                <mxCell id="102" value="réussir" style="ellipse;whiteSpace=wrap;html=1;align=center;newEdgeStyle={&quot;edgeStyle&quot;:&quot;entityRelationEdgeStyle&quot;,&quot;startArrow&quot;:&quot;none&quot;,&quot;endArrow&quot;:&quot;none&quot;,&quot;segment&quot;:10,&quot;curved&quot;:1,&quot;sourcePerimeterSpacing&quot;:0,&quot;targetPerimeterSpacing&quot;:0};treeFolding=1;treeMoving=1;fontSize=10;" parent="1" vertex="1">
                    <mxGeometry x="137" y="644" width="85" height="36" as="geometry"/>
                </mxCell>
                <mxCell id="103" value="Participer" style="ellipse;whiteSpace=wrap;html=1;align=center;newEdgeStyle={&quot;edgeStyle&quot;:&quot;entityRelationEdgeStyle&quot;,&quot;startArrow&quot;:&quot;none&quot;,&quot;endArrow&quot;:&quot;none&quot;,&quot;segment&quot;:10,&quot;curved&quot;:1,&quot;sourcePerimeterSpacing&quot;:0,&quot;targetPerimeterSpacing&quot;:0};treeFolding=1;treeMoving=1;fontSize=10;" parent="1" vertex="1">
                    <mxGeometry x="413" y="657" width="85" height="36" as="geometry"/>
                </mxCell>
                <mxCell id="104" value="&lt;span style=&quot;background-color: initial; text-align: left;&quot;&gt;retourner&lt;/span&gt;" style="ellipse;whiteSpace=wrap;html=1;align=center;newEdgeStyle={&quot;edgeStyle&quot;:&quot;entityRelationEdgeStyle&quot;,&quot;startArrow&quot;:&quot;none&quot;,&quot;endArrow&quot;:&quot;none&quot;,&quot;segment&quot;:10,&quot;curved&quot;:1,&quot;sourcePerimeterSpacing&quot;:0,&quot;targetPerimeterSpacing&quot;:0};treeFolding=1;treeMoving=1;fontSize=10;" parent="1" vertex="1">
                    <mxGeometry x="158" y="771" width="85" height="36" as="geometry"/>
                </mxCell>
                <mxCell id="105" value="" style="shape=link;html=1;fontSize=10;width=1.1111111111111107;exitX=1.034;exitY=0.083;exitDx=0;exitDy=0;exitPerimeter=0;" parent="1" edge="1">
                    <mxGeometry width="100" relative="1" as="geometry">
                        <mxPoint x="512.6840322265625" y="791.2860000000001" as="sourcePoint"/>
                        <mxPoint x="568" y="790.97" as="targetPoint"/>
                        <Array as="points"/>
                    </mxGeometry>
                </mxCell>
                <mxCell id="106" value="&lt;font style=&quot;font-weight: normal; font-size: 8px;&quot;&gt;1.1&lt;/font&gt;" style="text;strokeColor=none;fillColor=none;html=1;fontSize=24;fontStyle=1;verticalAlign=middle;align=center;strokeWidth=1;opacity=60;rotation=0;" parent="1" vertex="1">
                    <mxGeometry x="523" y="768" width="47" height="19" as="geometry"/>
                </mxCell>
                <mxCell id="107" value="" style="shape=link;html=1;fontSize=10;width=1.1111111111111107;" parent="1" edge="1">
                    <mxGeometry width="100" relative="1" as="geometry">
                        <mxPoint x="387" y="789" as="sourcePoint"/>
                        <mxPoint x="424" y="788.97" as="targetPoint"/>
                        <Array as="points"/>
                    </mxGeometry>
                </mxCell>
                <mxCell id="108" value="&lt;font style=&quot;font-weight: normal; font-size: 8px;&quot;&gt;1.1&lt;/font&gt;" style="text;strokeColor=none;fillColor=none;html=1;fontSize=24;fontStyle=1;verticalAlign=middle;align=center;strokeWidth=1;opacity=60;rotation=0;" parent="1" vertex="1">
                    <mxGeometry x="378" y="766" width="47" height="19" as="geometry"/>
                </mxCell>
                <mxCell id="109" value="" style="shape=link;html=1;fontSize=10;width=1.1111111111111107;exitX=1.034;exitY=0.083;exitDx=0;exitDy=0;exitPerimeter=0;" parent="1" edge="1">
                    <mxGeometry width="100" relative="1" as="geometry">
                        <mxPoint x="243.68403222656252" y="786.2860000000001" as="sourcePoint"/>
                        <mxPoint x="299" y="785.97" as="targetPoint"/>
                        <Array as="points"/>
                    </mxGeometry>
                </mxCell>
                <mxCell id="110" value="" style="shape=link;html=1;fontSize=10;width=1.1111111111111107;exitX=1.034;exitY=0.083;exitDx=0;exitDy=0;exitPerimeter=0;" parent="1" edge="1">
                    <mxGeometry width="100" relative="1" as="geometry">
                        <mxPoint x="101.68403222656252" y="786.2860000000001" as="sourcePoint"/>
                        <mxPoint x="157" y="785.97" as="targetPoint"/>
                        <Array as="points"/>
                    </mxGeometry>
                </mxCell>
                <mxCell id="111" value="&lt;font style=&quot;font-weight: normal; font-size: 8px;&quot;&gt;1.1&lt;/font&gt;" style="text;strokeColor=none;fillColor=none;html=1;fontSize=24;fontStyle=1;verticalAlign=middle;align=center;strokeWidth=1;opacity=60;rotation=0;" parent="1" vertex="1">
                    <mxGeometry x="253" y="763" width="47" height="19" as="geometry"/>
                </mxCell>
                <mxCell id="112" value="&lt;font style=&quot;font-weight: normal; font-size: 8px;&quot;&gt;1.N&lt;/font&gt;" style="text;strokeColor=none;fillColor=none;html=1;fontSize=24;fontStyle=1;verticalAlign=middle;align=center;strokeWidth=1;opacity=60;rotation=0;" parent="1" vertex="1">
                    <mxGeometry x="90" y="764" width="47" height="19" as="geometry"/>
                </mxCell>
                <mxCell id="113" value="" style="shape=link;html=1;fontSize=10;width=1.1111111111111107;exitX=1;exitY=0.5;exitDx=0;exitDy=0;entryX=-0.021;entryY=-0.044;entryDx=0;entryDy=0;entryPerimeter=0;" parent="1" source="103" target="87" edge="1">
                    <mxGeometry width="100" relative="1" as="geometry">
                        <mxPoint x="515.6840322265625" y="689.316" as="sourcePoint"/>
                        <mxPoint x="571" y="689" as="targetPoint"/>
                        <Array as="points"/>
                    </mxGeometry>
                </mxCell>
                <mxCell id="114" value="" style="shape=link;html=1;fontSize=10;width=1.1111111111111107;exitX=1;exitY=0.5;exitDx=0;exitDy=0;entryX=0.245;entryY=0.022;entryDx=0;entryDy=0;entryPerimeter=0;" parent="1" edge="1">
                    <mxGeometry width="100" relative="1" as="geometry">
                        <mxPoint x="363" y="595" as="sourcePoint"/>
                        <mxPoint x="438.82500000000005" y="656.7919999999999" as="targetPoint"/>
                        <Array as="points"/>
                    </mxGeometry>
                </mxCell>
                <mxCell id="115" value="" style="shape=link;html=1;fontSize=10;width=1.1111111111111107;exitX=1;exitY=0;exitDx=0;exitDy=0;entryX=-0.045;entryY=1.042;entryDx=0;entryDy=0;entryPerimeter=0;" parent="1" edge="1">
                    <mxGeometry width="100" relative="1" as="geometry">
                        <mxPoint x="210.06857599233467" y="646.4946734576813" as="sourcePoint"/>
                        <mxPoint x="293.01084966131975" y="593.184" as="targetPoint"/>
                        <Array as="points"/>
                    </mxGeometry>
                </mxCell>
                <mxCell id="116" value="" style="shape=link;html=1;fontSize=10;width=1.1111111111111107;exitX=0.37;exitY=-0.021;exitDx=0;exitDy=0;entryX=-0.045;entryY=1.042;entryDx=0;entryDy=0;entryPerimeter=0;exitPerimeter=0;" parent="1" source="98" edge="1">
                    <mxGeometry width="100" relative="1" as="geometry">
                        <mxPoint x="68.36369251325323" y="729.0169889228914" as="sourcePoint"/>
                        <mxPoint x="152.00084966131976" y="676.0039999999999" as="targetPoint"/>
                        <Array as="points"/>
                    </mxGeometry>
                </mxCell>
                <mxCell id="117" value="&lt;font style=&quot;font-weight: normal; font-size: 8px;&quot;&gt;1.1&lt;/font&gt;" style="text;strokeColor=none;fillColor=none;html=1;fontSize=24;fontStyle=1;verticalAlign=middle;align=center;strokeWidth=1;opacity=60;rotation=0;" parent="1" vertex="1">
                    <mxGeometry x="547" y="706" width="47" height="19" as="geometry"/>
                </mxCell>
                <mxCell id="118" value="&lt;font style=&quot;font-weight: normal; font-size: 8px;&quot;&gt;1.N&lt;/font&gt;" style="text;strokeColor=none;fillColor=none;html=1;fontSize=24;fontStyle=1;verticalAlign=middle;align=center;strokeWidth=1;opacity=60;rotation=0;" parent="1" vertex="1">
                    <mxGeometry x="357" y="576.94" width="47" height="19" as="geometry"/>
                </mxCell>
                <mxCell id="119" value="&lt;font style=&quot;font-weight: normal; font-size: 8px;&quot;&gt;1.1&lt;/font&gt;" style="text;strokeColor=none;fillColor=none;html=1;fontSize=24;fontStyle=1;verticalAlign=middle;align=center;strokeWidth=1;opacity=60;rotation=0;" parent="1" vertex="1">
                    <mxGeometry x="253" y="574.94" width="47" height="19" as="geometry"/>
                </mxCell>
                <mxCell id="120" value="&lt;font style=&quot;font-weight: normal; font-size: 8px;&quot;&gt;1.1&lt;/font&gt;" style="text;strokeColor=none;fillColor=none;html=1;fontSize=24;fontStyle=1;verticalAlign=middle;align=center;strokeWidth=1;opacity=60;rotation=0;" parent="1" vertex="1">
                    <mxGeometry x="22" y="722" width="47" height="19" as="geometry"/>
                </mxCell>
                <mxCell id="136" value="Sponsoring" style="swimlane;fontStyle=0;childLayout=stackLayout;horizontal=1;startSize=26;fillColor=none;horizontalStack=0;resizeParent=1;resizeParentMax=0;resizeLast=0;collapsible=1;marginBottom=0;html=1;" parent="1" vertex="1">
                    <mxGeometry x="267" y="379" width="129" height="78" as="geometry"/>
                </mxCell>
                <mxCell id="137" value="id sponsor" style="text;strokeColor=none;fillColor=none;align=left;verticalAlign=top;spacingLeft=4;spacingRight=4;overflow=hidden;rotatable=0;points=[[0,0.5],[1,0.5]];portConstraint=eastwest;whiteSpace=wrap;html=1;" parent="136" vertex="1">
                    <mxGeometry y="26" width="129" height="26" as="geometry"/>
                </mxCell>
                <mxCell id="139" value="id évenement" style="text;strokeColor=none;fillColor=none;align=left;verticalAlign=top;spacingLeft=4;spacingRight=4;overflow=hidden;rotatable=0;points=[[0,0.5],[1,0.5]];portConstraint=eastwest;whiteSpace=wrap;html=1;" parent="136" vertex="1">
                    <mxGeometry y="52" width="129" height="26" as="geometry"/>
                </mxCell>
                <mxCell id="144" value="" style="shape=link;html=1;fontSize=10;width=0.4761904761904763;exitX=0.328;exitY=1.029;exitDx=0;exitDy=0;exitPerimeter=0;" parent="1" edge="1">
                    <mxGeometry width="100" relative="1" as="geometry">
                        <mxPoint x="317.7890399999999" y="608.74" as="sourcePoint"/>
                        <mxPoint x="318" y="630" as="targetPoint"/>
                        <Array as="points"/>
                    </mxGeometry>
                </mxCell>
                <mxCell id="147" value="" style="shape=link;html=1;fontSize=10;width=0.6666666666666661;" parent="1" edge="1">
                    <mxGeometry width="100" relative="1" as="geometry">
                        <mxPoint x="329" y="708" as="sourcePoint"/>
                        <mxPoint x="329" y="735" as="targetPoint"/>
                        <Array as="points"/>
                    </mxGeometry>
                </mxCell>
                <mxCell id="148" value="&lt;font style=&quot;font-weight: normal; font-size: 8px;&quot;&gt;1.N&lt;/font&gt;" style="text;strokeColor=none;fillColor=none;html=1;fontSize=24;fontStyle=1;verticalAlign=middle;align=center;strokeWidth=1;opacity=60;rotation=0;" parent="1" vertex="1">
                    <mxGeometry x="278" y="607" width="47" height="19" as="geometry"/>
                </mxCell>
                <mxCell id="149" value="&lt;font style=&quot;font-weight: normal; font-size: 8px;&quot;&gt;1.N&lt;/font&gt;" style="text;strokeColor=none;fillColor=none;html=1;fontSize=24;fontStyle=1;verticalAlign=middle;align=center;strokeWidth=1;opacity=60;rotation=0;" parent="1" vertex="1">
                    <mxGeometry x="289" y="711" width="47" height="19" as="geometry"/>
                </mxCell>
                <mxCell id="155" value="Distrubier" style="swimlane;fontStyle=0;childLayout=stackLayout;horizontal=1;startSize=26;fillColor=none;horizontalStack=0;resizeParent=1;resizeParentMax=0;resizeLast=0;collapsible=1;marginBottom=0;html=1;" parent="1" vertex="1">
                    <mxGeometry x="281" y="631" width="109" height="78" as="geometry"/>
                </mxCell>
                <mxCell id="156" value="id évenement" style="text;strokeColor=none;fillColor=none;align=left;verticalAlign=top;spacingLeft=4;spacingRight=4;overflow=hidden;rotatable=0;points=[[0,0.5],[1,0.5]];portConstraint=eastwest;whiteSpace=wrap;html=1;" parent="155" vertex="1">
                    <mxGeometry y="26" width="109" height="26" as="geometry"/>
                </mxCell>
                <mxCell id="157" value="id biellet" style="text;strokeColor=none;fillColor=none;align=left;verticalAlign=top;spacingLeft=4;spacingRight=4;overflow=hidden;rotatable=0;points=[[0,0.5],[1,0.5]];portConstraint=eastwest;whiteSpace=wrap;html=1;" parent="155" vertex="1">
                    <mxGeometry y="52" width="109" height="26" as="geometry"/>
                </mxCell>
            </root>
        </mxGraphModel>
    </diagram>
</mxfile>